<svg width="395" height="80" xmlns="http://www.w3.org/2000/svg" xmlns:xlink="http://www.w3.org/1999/xlink"><defs><path d="M243.051 56.925v-6.894h6.95v6.894h-6.95zm32.124-8.762c-1.303 6.78-5.692 9.816-11.818 9.816-7.959 0-12.348-5.359-12.348-12.898 0-7.682 4.727-13.088 12.782-13.088 5.258 0 10.805 3.13 11.142 9.247l-6.849.284c-.434-2.418-1.93-3.793-4.438-3.793-4.051 0-5.257 3.604-5.257 7.018 0 3.367.965 7.302 5.113 7.302 2.605 0 4.486-1.66 4.775-4.22l6.898.332zm13.578 9.815c-7.854 0-12.752-5.311-12.752-12.851 0-7.967 5.286-13.137 13.431-13.137 7.709 0 12.557 5.549 12.557 12.9 0 7.587-5.43 13.088-13.236 13.088zm43.258-.988V44.16c0-2.642-.239-5.849-3.582-5.849-3.678 0-3.82 3.113-3.82 5.849v12.83h-7.07V43.17c0-2.076-.525-4.859-3.63-4.859-3.582 0-3.916 3.349-3.916 5.66V56.99h-6.973V32.557h6.973v3.254c1.48-2.736 3.725-3.82 6.83-3.82 2.961 0 5.445 1.368 6.591 4.197 1.528-2.64 4.346-4.15 7.403-4.15 1.863 0 4.06.566 5.54 1.745 2.627 2.123 2.675 4.717 2.675 7.783V56.99h-7.02zm8.001-.017v-6.96h7.008v6.96h-7.008zm24.963-1.909c-2.423 1.519-3.907 2.942-8.01 2.942-4.697 0-8.95-2.704-8.95-7.923 0-5.362 4.351-7.212 9.148-7.876l3.46-.475c2.176-.284 3.956-.474 3.956-2.04 0-2.04-2.72-2.277-3.906-2.277-2.67 0-4.5.949-4.5 3.084h-6.724c.445-8.16 8.554-8.493 10.927-8.493 6.972 0 11.62 1.945 11.62 9.252v10.628c0 2.514.197 4.127.84 5.219l.148.19h-7.663l-.346-2.23zm23.334 2.31v-2.682c-1.387 2.211-4.494 3.293-7.029 3.293-7.746 0-8.273-6.163-8.273-10.773V33.004h7.03v13.972c0 2.682.526 5.27 3.873 5.27 3.539 0 4.256-2.87 4.256-6.54V33.004h6.838v24.37h-6.695zM289.09 37.43c-4.574 0-6.116 3.645-6.116 7.339 0 3.598 1.44 7.531 6.013 7.531 4.677 0 6.013-4.077 6.013-7.77 0-3.55-1.439-7.1-5.91-7.1zm75.81 8.01c-.681.24-1.12.432-1.752.576-1.994.528-7.493.576-7.493 3.79 0 2.062 1.898 2.686 3.358 2.686.535 0 4.038-.048 5.887-3.214v-3.837z" id="a"/><path d="M118.871 57V36.59c0-3.355-1.263-6.642-5.118-6.642-4.653 0-5.917 4.16-5.917 7.849V57h-9.838V22.3h9.573v4.025c2.393-3.086 5.517-4.83 9.506-4.83 2.592 0 5.184.67 7.245 2.28 3.922 3.02 4.678 7.518 4.678 12.214V57h-10.129zm21.538-14.01c.61 4.438 2.979 7.697 7.582 7.697 3.115 0 5.078-1.11 6.567-3.814l10.02.694c-2.505 7.696-9.14 11.44-16.858 11.44-11.103 0-17.737-7.974-17.737-18.997 0-10.747 6.973-18.998 17.737-18.998 11.713 0 17.264 9.152 17.264 20.245v1.734H140.41zm71.648-20.993L202.047 57h-9.142L187.1 33.35 181.36 57h-9.275l-10.077-35.003h10.077l5.271 21.894 5.405-21.894h8.675l5.339 21.894 5.272-21.894h10.01zm7.767 22.72c.597 4.524 2.92 5.808 7.304 5.808 2.124 0 4.913-.473 4.913-3.242 0-6.28-20.451-1.215-20.451-15.195 0-8.24 7.37-11.076 14.342-11.076 7.57 0 14.674 3.31 15.072 11.886l-9.163.473c-.198-3.714-3.187-5.065-6.042-5.065-1.859 0-4.78.338-4.78 2.971 0 5.336 20.982 1.148 20.982 14.993 0 9.05-8.035 11.751-15.538 11.751-7.303 0-15.935-3.31-15.935-12.561v-.406l9.296-.337zm-65.283-9.659c-.335-3.487-2.883-5.967-6.436-5.967-4.225 0-6.37 2.011-7.443 5.967h13.88z" id="b"/><path d="M11.667 14H2.333A2.34 2.34 0 0 1 0 11.667V2.333A2.34 2.34 0 0 1 2.333 0h9.334A2.34 2.34 0 0 1 14 2.333v9.334A2.34 2.34 0 0 1 11.667 14" id="c"/><path d="M11.667 14H2.333A2.34 2.34 0 0 1 0 11.667V2.333A2.34 2.34 0 0 1 2.333 0h9.334A2.34 2.34 0 0 1 14 2.333v9.334A2.34 2.34 0 0 1 11.667 14" id="e"/><path d="M17.314 10.663l-6.651 6.651a2.359 2.359 0 0 1-3.326 0L.686 10.663a2.359 2.359 0 0 1 0-3.326L7.337.686a2.358 2.358 0 0 1 3.326 0l6.651 6.651a2.359 2.359 0 0 1 0 3.326" id="g"/><path d="M7.337 17.314L.686 10.663a2.358 2.358 0 0 1 0-3.326L7.337.686a2.359 2.359 0 0 1 3.326 0l6.651 6.651a2.358 2.358 0 0 1 0 3.326l-6.651 6.651a2.359 2.359 0 0 1-3.326 0" id="i"/><path d="M7.337 17.314L.686 10.663a2.359 2.359 0 0 1 0-3.326L7.337.686a2.359 2.359 0 0 1 3.326 0l6.651 6.651a2.358 2.358 0 0 1 0 3.326l-6.651 6.651a2.359 2.359 0 0 1-3.326 0" id="k"/><path d="M14 2.333v9.334A2.34 2.34 0 0 1 11.667 14H2.333A2.34 2.34 0 0 1 0 11.667V2.333A2.34 2.34 0 0 1 2.333 0h9.334A2.34 2.34 0 0 1 14 2.333" id="m"/><path d="M14 2.333v9.334A2.34 2.34 0 0 1 11.667 14H2.333A2.34 2.34 0 0 1 0 11.667V2.333A2.34 2.34 0 0 1 2.333 0h9.334A2.34 2.34 0 0 1 14 2.333" id="o"/><path d="M17.314 10.663l-6.651 6.651a2.358 2.358 0 0 1-3.326 0l-6.65-6.651a2.358 2.358 0 0 1 0-3.326L7.336.686a2.359 2.359 0 0 1 3.326 0l6.651 6.651a2.359 2.359 0 0 1 0 3.326" id="q"/></defs><g fill="none" fill-rule="evenodd"><use fill="#C2C2C2" xlink:href="#a"/><use fill="#000" xlink:href="#b"/><g transform="translate(33)"><mask id="d" fill="#fff"><use xlink:href="#c"/></mask><use fill="#C90000" xlink:href="#c"/><g mask="url(#d)" fill="#C90000"><path d="M-52-40H68V80H-52z"/></g></g><g transform="translate(33 66)"><mask id="f" fill="#fff"><use xlink:href="#e"/></mask><use fill="#00838D" xlink:href="#e"/><g mask="url(#f)" fill="#00838D"><path d="M-53-51H68V69H-53z"/></g></g><g transform="translate(7 7)"><mask id="h" fill="#fff"><use xlink:href="#g"/></mask><use fill="#D51387" xlink:href="#g"/><g mask="url(#h)" fill="#D51387"><path d="M-53-53H67V67H-53z"/></g></g><g transform="translate(55 7)"><mask id="j" fill="#fff"><use xlink:href="#i"/></mask><use fill="#F46A00" xlink:href="#i"/><g mask="url(#j)" fill="#F46A00"><path d="M-54-42H66.706V78H-54z"/></g></g><g transform="translate(7 55)"><mask id="l" fill="#fff"><use xlink:href="#k"/></mask><use fill="#1691DB" xlink:href="#k"/><g mask="url(#l)" fill="#1691DB"><path d="M-55.059-55.059H65.647V65.647H-55.059z"/></g></g><g transform="translate(0 33)"><mask id="n" fill="#fff"><use xlink:href="#m"/></mask><use fill="#7C28B6" xlink:href="#m"/><g mask="url(#n)" fill="#7C28B6"><path d="M-34-42H86V78H-34z"/></g></g><g transform="translate(66 33)"><mask id="p" fill="#fff"><use xlink:href="#o"/></mask><use fill="#81888C" xlink:href="#o"/><g mask="url(#p)" fill="#81888C"><path d="M-58.154-53.846H62.461V66.769H-58.154z"/></g></g><g transform="translate(55 55)"><mask id="r" fill="#fff"><use xlink:href="#q"/></mask><use fill="#2FA710" xlink:href="#q"/><g mask="url(#r)" fill="#4AA90F"><path d="M-45.53-51.882H75.178V68.824H-45.53z"/></g></g></g></svg>